<svg xmlns="http://www.w3.org/2000/svg" xmlns:xlink="http://www.w3.org/1999/xlink" xmlns:svgjs="http://svgjs.com/svgjs" id="SvgjsSvg1001" version="1.1" viewBox="2.91 6.5 250.18 243"><defs id="SvgjsDefs1002" fill="#008cff"/><g id="SvgjsG1008"><svg xmlns="http://www.w3.org/2000/svg" data-name="Layer 1" viewBox="0 0 128 128" width="256" height="256"><circle cx="65.437" cy="8.538" r="5.287" fill="#008cff" class="color3b4652 svgShape"/><circle cx="103.384" cy="24.256" r="6.724" fill="#008cff" transform="rotate(-45 103.384 24.256)" class="color3b4652 svgShape"/><circle cx="119.102" cy="62.203" r="7.443" fill="#008cff" class="color3b4652 svgShape"/><path fill="#008cff" d="M103.38428 91.98863a8.1628 8.1628 0 1 0 5.77055 2.39048A8.10644 8.10644 0 0 0 103.38428 91.98863zM65.437 106.98772a8.88042 8.88042 0 1 0 8.88042 8.88042A8.89023 8.89023 0 0 0 65.437 106.98772zM20.70294 93.36284h-.0007a9.599 9.599 0 1 0 13.57575 0A9.60811 9.60811 0 0 0 20.70294 93.36284zM22.08978 62.20311a10.31745 10.31745 0 1 0-10.3171 10.3178A10.329 10.329 0 0 0 22.08978 62.20311zM35.29426 16.4524a8.72488 8.72488 0 1 0 .0007.00035z" class="color3b4652 svgShape"/></svg></g></svg>