<svg xmlns="http://www.w3.org/2000/svg" version="1.1" xmlns:xlink="http://www.w3.org/1999/xlink" xmlns:svgjs="http://svgjs.dev/svgjs" viewBox="0 0 800 800"><defs><linearGradient x1="50%" y1="0%" x2="50%" y2="100%" id="nnneon-grad"><stop stop-color="hsl(162, 100%, 58%)" stop-opacity="1" offset="0%"></stop><stop stop-color="hsl(270, 73%, 53%)" stop-opacity="1" offset="100%"></stop></linearGradient><filter id="nnneon-filter" x="-100%" y="-100%" width="400%" height="400%" filterUnits="objectBoundingBox" primitiveUnits="userSpaceOnUse" color-interpolation-filters="sRGB">
	<feGaussianBlur stdDeviation="17 8" x="0%" y="0%" width="100%" height="100%" in="SourceGraphic" edgeMode="none" result="blur"></feGaussianBlur></filter><filter id="nnneon-filter2" x="-100%" y="-100%" width="400%" height="400%" filterUnits="objectBoundingBox" primitiveUnits="userSpaceOnUse" color-interpolation-filters="sRGB">
	<feGaussianBlur stdDeviation="10 17" x="0%" y="0%" width="100%" height="100%" in="SourceGraphic" edgeMode="none" result="blur"></feGaussianBlur></filter></defs><g stroke-width="16" stroke="url(#nnneon-grad)" fill="none"><path d="M389.14103223963247 255.32842112942834C393.58978170614216 246.33884568239637 406.41022474933516 246.33884568239637 410.8589742158448 255.32842112942834L548.727804019874 533.9252988041978C552.7125363170826 541.977147647995 546.8535623464834 551.4137788012202 537.8700445648469 551.4137788012202H262.1299618906303C253.14644410899382 551.4137788012202 247.2874701383946 541.977147647995 251.27220243560328 533.9252988041978L389.14103223963247 255.32842112942834Z " filter="url(#nnneon-filter)"></path><path d="M401.14103223963247 255.32842112942834C405.58978170614216 246.33884568239637 418.41022474933516 246.33884568239637 422.8589742158448 255.32842112942834L560.727804019874 533.9252988041978C564.7125363170826 541.977147647995 558.8535623464834 551.4137788012202 549.8700445648469 551.4137788012202H274.1299618906303C265.1464441089938 551.4137788012202 259.2874701383946 541.977147647995 263.2722024356033 533.9252988041978L401.14103223963247 255.32842112942834Z " filter="url(#nnneon-filter2)" opacity="0.25"></path><path d="M377.14103223963247 255.32842112942834C381.58978170614216 246.33884568239637 394.41022474933516 246.33884568239637 398.8589742158448 255.32842112942834L536.727804019874 533.9252988041978C540.7125363170826 541.977147647995 534.8535623464834 551.4137788012202 525.8700445648469 551.4137788012202H250.12996189063028C241.14644410899382 551.4137788012202 235.2874701383946 541.977147647995 239.27220243560328 533.9252988041978L377.14103223963247 255.32842112942834Z " filter="url(#nnneon-filter2)" opacity="0.25"></path><path d="M389.14103223963247 255.32842112942834C393.58978170614216 246.33884568239637 406.41022474933516 246.33884568239637 410.8589742158448 255.32842112942834L548.727804019874 533.9252988041978C552.7125363170826 541.977147647995 546.8535623464834 551.4137788012202 537.8700445648469 551.4137788012202H262.1299618906303C253.14644410899382 551.4137788012202 247.2874701383946 541.977147647995 251.27220243560328 533.9252988041978L389.14103223963247 255.32842112942834Z "></path></g></svg>